<svg width="360" height="343" viewBox="0 0 360 343" fill="none" xmlns="http://www.w3.org/2000/svg">
<path opacity="0.5" d="M123.902 272C181.022 272 227.328 269.24 227.328 265.835C227.328 262.43 181.022 259.669 123.902 259.669C66.7807 259.669 20.4751 262.43 20.4751 265.835C20.4751 269.24 66.7807 272 123.902 272Z" fill="#333333"/>
<g opacity="0.5">
<g opacity="0.5">
<path opacity="0.5" fill-rule="evenodd" clip-rule="evenodd" d="M162.323 238.309C152.694 238.605 143.085 238.308 133.498 237.37C124.233 236.464 115.057 235.095 106.178 232.333C88.6521 226.882 71.782 219.939 55.9881 210.827C36.2125 199.418 21.517 183.48 11.499 163.558C7.26185 155.132 3.75708 146.454 1.54034 137.323C0.0982267 131.383 -0.418183 125.385 0.36481 119.318C0.537445 117.981 0.800736 116.63 1.23636 115.352C3.12697 109.805 5.85264 104.686 9.79213 100.184C12.9349 96.5925 16.7188 93.85 21.2528 92.1369C28.8888 89.2518 36.7885 87.2091 43.6059 82.709C52.071 77.1211 58.6186 69.5552 66.2974 63.116C74.3461 56.3669 82.6056 49.9185 91.3855 44.0545C108.018 32.9456 125.75 23.876 145.206 18.112C154.981 15.2165 164.876 12.8308 175.015 11.466C181.21 10.6321 187.445 10.2575 193.699 10.034C211.45 9.3995 228.865 11.2239 245.827 16.4121C257.021 19.8357 267.634 24.4439 277.192 31.0862C285.695 36.9965 292.945 44.0487 298.249 52.8106C300.693 56.8471 302.546 61.1094 303.319 65.7601C304.727 74.23 302.375 81.6413 296.562 88.1006C292.922 92.1455 288.502 95.2185 283.619 97.725C278.421 100.393 272.871 102.215 267.305 104.003C260.609 106.155 253.933 108.361 247.521 111.228C243.917 112.839 240.39 114.599 237.29 117.008C235.994 118.015 234.769 119.175 233.771 120.451C232.097 122.593 232.131 124.842 233.838 126.949C234.759 128.086 235.858 129.187 237.108 129.962C240.297 131.94 243.546 133.852 246.898 135.562C253.469 138.914 260.169 142.035 266.735 145.396C272.449 148.321 277.96 151.581 282.788 155.779C287.798 160.136 291.934 165.132 294.638 171.121C297.049 176.461 297.962 181.998 296.757 187.77C296.021 191.298 294.449 194.484 292.38 197.461C289.239 201.979 285.226 205.702 280.838 209.083C275.031 213.556 268.549 216.925 261.78 219.838C247.787 225.861 233.214 230.092 218.189 232.97C209.605 234.614 200.975 235.976 192.278 236.914C184.603 237.742 176.898 238.192 169.174 238.304C166.891 238.337 164.607 238.309 162.323 238.309Z" fill="#333333"/>
</g>
</g>
<path fill-rule="evenodd" clip-rule="evenodd" d="M169.528 228.256C170.13 228.48 170.614 229.025 171.152 229.421C171.112 229.638 171.072 229.854 171.032 230.07C170.13 230.304 169.213 230.781 168.328 230.729C164.729 230.513 161.862 231.921 159.387 234.387C159.22 234.553 158.963 234.63 158.74 234.732C158.672 234.763 158.579 234.736 158.456 234.736C157.313 233.945 157.813 233.004 158.348 232.145C160.159 229.232 166.329 227.072 169.528 228.256ZM170.698 221.623C170.998 221.753 171.334 221.918 171.517 222.167C171.744 222.476 172.005 222.935 171.925 223.245C171.85 223.536 171.356 223.904 171.037 223.913C170.222 223.934 169.403 223.762 168.584 223.688C166.453 223.496 164.293 223.012 162.195 223.2C159.247 223.465 156.592 224.812 154.593 227.052C152.945 228.899 151.535 230.959 150.014 232.919C149.546 233.523 149.476 234.564 148.219 234.48C147.493 233.5 147.807 232.427 148.281 231.508C151.271 225.706 155.577 221.471 162.241 220.237C165.201 219.688 167.997 220.45 170.698 221.623ZM205.856 228.475C208.775 228.654 210.676 230.18 210.79 232.454C209.87 233.228 208.974 232.65 208.276 232.206C205.45 230.404 202.78 230.713 200.097 232.461C199.726 232.702 199.192 232.717 198.453 232.91C198.949 229.839 201.847 228.229 205.856 228.475ZM135.738 223.169C135.817 223.196 135.904 223.203 135.975 223.241C136.832 223.7 138.114 224.002 137.751 225.278C137.397 226.527 136.317 225.919 135.434 225.748C131.194 224.927 127.306 225.377 124.432 229.118C123.976 229.711 123.693 230.446 123.207 231.004C122.886 231.372 122.342 231.542 121.792 231.861C121.113 230.029 121.935 228.783 122.674 227.633C125.19 223.721 131.317 221.674 135.738 223.169ZM212.729 222.185C214.87 223.79 216.946 225.516 218.085 228.023C218.248 228.381 218.005 228.919 217.944 229.419C216.598 229.603 215.987 228.756 215.301 228.072C214.06 226.835 212.926 225.476 211.584 224.36C206.809 220.386 201.173 220.842 197.118 225.534C195.871 226.978 194.861 228.622 193.737 230.17C193.277 230.804 193.085 231.786 191.943 231.567C191.427 228.834 194.759 224.069 199.095 221.319C203.261 218.677 208.428 218.96 212.729 222.185ZM173.272 213.239C174.326 213.622 175.453 214.135 175.345 215.961C174.485 215.847 173.711 215.756 172.94 215.639C170.003 215.19 167.079 214.488 164.126 214.328C156.368 213.909 150.629 217.502 146.498 223.915C145.419 225.589 144.542 227.396 143.455 229.064C142.957 229.83 142.175 230.41 141.523 231.074C141.337 230.979 141.151 230.884 140.964 230.789C141.018 230.101 140.891 229.333 141.154 228.739C144.158 221.95 148.26 216.106 155.354 213.095C161.315 210.565 167.326 211.074 173.272 213.239ZM210.832 210.665C212.724 211.112 214.607 212.076 216.197 213.216C220.21 216.096 223.057 220.018 225.225 224.415C225.671 225.32 225.764 226.398 226.016 227.38C224.617 228.1 223.927 227.513 223.387 226.732C222.628 225.635 221.936 224.491 221.243 223.349C219.539 220.543 217.504 218.012 214.958 215.927C212.627 214.017 209.981 212.882 206.903 212.997C205.151 213.063 203.375 213.014 201.655 213.292C197.151 214.021 193.941 216.82 191.427 220.375C189.555 223.022 188.045 225.924 186.36 228.704C185.871 229.509 185.334 230.284 184.819 231.074C184.551 230.965 184.283 230.856 184.015 230.746C184.13 229.879 184.066 228.938 184.389 228.157C186.717 222.523 189.865 217.402 194.881 213.776C199.654 210.326 205.106 209.311 210.832 210.665ZM131.837 215.442C134.009 215.823 136.085 216.799 138.179 217.577C138.702 217.771 139.217 218.172 139.562 218.617C139.823 218.954 140.018 219.626 139.854 219.94C139.683 220.267 138.998 220.572 138.624 220.488C137.494 220.233 136.394 219.819 135.305 219.406C130.811 217.702 126.246 217.29 121.603 218.658C116.851 220.059 113.358 222.941 111.519 227.712C111.247 228.418 110.947 229.115 110.604 229.787C110.505 229.981 110.21 230.07 109.888 230.287C108.575 229.502 108.927 228.488 109.18 227.512C110.337 223.046 113.225 219.959 117.072 217.819C121.677 215.259 126.697 214.541 131.837 215.442ZM216.32 202.007C224.175 206.345 229.572 212.898 232.769 221.273C233.094 222.122 233.002 223.132 233.103 224.067L232.27 224.429C231.642 223.718 230.892 223.08 230.409 222.281C229.371 220.561 228.448 218.769 227.516 216.987C224.707 211.623 220.495 207.584 215.376 204.561C208.347 200.41 201.226 201.103 194.468 205.187C187.227 209.563 182.666 216.187 179.904 224.121C179.547 225.15 179.264 226.208 178.843 227.209C178.61 227.764 178.163 228.229 177.827 228.713C176.531 228.011 176.966 227.13 177.137 226.354C178.462 220.331 181.251 215.028 185.179 210.335C189.53 205.139 194.744 201.267 201.531 199.829C206.751 198.722 211.709 199.46 216.32 202.007ZM143.544 210.814C144.351 211.236 145.148 211.733 145.821 212.34C146.252 212.728 146.446 213.38 146.74 213.902C145.473 214.822 144.573 214.208 143.706 213.777C138.734 211.307 133.528 209.655 128.001 209.022C124.139 208.58 120.313 208.71 116.63 209.963C110.276 212.126 106.69 216.728 105.502 223.301C105.338 224.207 105.19 225.118 104.979 226.013C104.77 226.896 104.631 228.052 103.418 227.914C102.125 227.768 102.364 226.559 102.453 225.702C102.915 221.292 104.162 217.158 107.006 213.657C110.512 209.341 115.142 206.974 120.557 206.39C128.629 205.519 136.325 207.035 143.544 210.814ZM94.2711 193.431C95.5096 193.887 96.7278 194.488 97.819 195.224C98.5776 195.736 99.1037 196.593 99.7514 197.315C98.6019 198.256 97.9258 197.52 97.2365 197.173C89.6587 193.363 81.8508 193.095 74.0061 196.019C65.3134 199.261 60.7198 205.964 59.1103 214.888C58.5333 218.085 58.1851 221.323 57.7012 224.538C57.571 225.4 57.5517 226.356 56.2794 227.139C56.1294 226.162 55.884 225.4 55.9161 224.65C56.1592 219.044 56.8853 213.507 58.8782 208.228C62.2416 199.318 68.9823 194.381 78.0392 192.44C83.5002 191.271 88.9694 191.479 94.2711 193.431ZM93.0789 223.855C93.3072 223.952 93.4115 224.348 93.7138 224.833C93.1202 225.597 92.5703 226.371 91.9349 227.066C91.8118 227.201 91.2775 227.134 91.0703 226.976C90.1496 226.274 90.6867 225.476 91.0969 224.8C91.5242 224.094 92.1201 223.447 93.0789 223.855ZM96.6126 205.979C97.329 206.474 98.233 206.966 97.8019 208.628C96.1525 208.093 94.5979 207.771 93.2085 207.105C88.6588 204.927 84.2489 205.472 79.9789 207.718C73.691 211.023 69.8139 216.206 68.2896 223.172C68.026 224.374 68.2666 225.858 66.7511 226.876C66.528 226.219 66.2469 225.725 66.2045 225.212C65.9451 222.045 66.6343 219.029 68.1047 216.259C71.5617 209.748 76.7418 205.273 83.9995 203.467C88.5723 202.329 92.7797 203.327 96.6126 205.979ZM50.6632 222.107C49.5388 222.612 48.7887 223.074 47.9746 223.281C46.9513 223.54 45.8792 223.65 44.8211 223.716C43.2953 223.81 42.1898 224.406 41.5408 225.874C41.3564 226.292 40.8066 226.547 40.4237 226.876C40.0723 226.391 39.495 225.94 39.4134 225.412C39.2095 224.098 39.8504 223.027 40.8124 222.153C43.0062 220.161 47.5651 219.968 50.6632 222.107ZM94.501 214.996C95.2184 215.039 95.9021 215.631 96.6013 215.972L96.5151 216.851C95.6032 217.04 94.6991 217.315 93.7781 217.399C91.9671 217.565 90.1265 217.487 88.3347 217.758C84.533 218.331 82.0863 220.578 80.9257 224.252C80.6947 224.982 80.4109 225.695 80.08 226.614C78.5287 225.615 78.661 224.482 78.8874 223.337C79.6751 219.356 83.4623 215.636 87.8204 214.984C90.0019 214.658 92.2784 214.861 94.501 214.996ZM44.7621 210.788C46.8695 211.257 48.909 212.07 50.9393 212.833C51.6416 213.098 52.2234 213.688 52.7632 214.387C50.9679 215.032 49.2669 214.921 47.563 214.584C46.169 214.308 44.7884 213.953 43.387 213.723C36.2646 212.552 29.8515 216.478 27.4938 223.411C27.2606 224.096 26.9716 224.761 26.6585 225.565C25.1103 224.957 25.1735 223.976 25.2156 223.066C25.3402 220.331 26.3981 217.921 28.2972 216.043C32.8759 211.519 38.3097 209.351 44.7621 210.788ZM51.9917 202.625C52.9146 203.303 53.7302 204.169 54.444 205.068C54.7729 205.482 54.7348 206.186 54.8632 206.758C54.6371 206.869 54.4114 206.98 54.1857 207.092C53.4628 206.567 52.7403 206.042 52.0164 205.519C48.2917 202.825 44.155 201.021 39.5568 200.867C28.816 200.508 19.9054 207.631 18.3981 218.084C18.1614 219.725 17.8875 221.367 17.5017 222.979C17.3251 223.718 16.8352 224.383 16.5086 225.04C15.0779 224.664 14.9082 223.777 14.9747 222.829C15.5701 214.299 18.4779 206.974 25.9398 202.033C33.7976 196.831 44.4027 197.045 51.9917 202.625ZM241.241 185.337C251.414 186.654 259.89 194.923 261.463 205.113C262.385 211.081 260.705 216.556 257.815 221.709C257.477 222.312 256.871 222.762 256.22 223.466C255.288 222.088 255.657 220.939 255.951 219.886C256.422 218.197 257.081 216.562 257.613 214.89C261.462 202.756 254.573 190.701 242.194 187.979C238.507 187.169 234.928 187.777 231.445 189.156C230.501 189.529 229.499 189.749 228.442 190.065C228.098 188.25 229.218 187.783 230.114 187.294C233.595 185.393 237.366 184.836 241.241 185.337ZM235.652 195.926C247.978 196.611 253.911 207.773 248.926 217.385C248.11 218.959 247.476 220.756 245.542 221.629C244.384 220.706 244.809 219.783 245.097 218.957C245.533 217.708 246.089 216.499 246.611 215.28C250.165 206.982 244.682 198.856 235.11 198.263C233.945 198.191 232.775 198.217 231.608 198.172C231.477 198.167 231.354 197.995 231.003 197.736C231.338 197.34 231.599 196.733 232.004 196.614C233.189 196.267 234.447 195.859 235.652 195.926ZM232.992 205.394C235.736 205.689 237.904 206.945 239.104 209.524C240.247 211.98 239.497 214.258 238.184 216.376C237.874 216.878 237.085 217.083 236.506 217.432C235.658 216.06 236.106 215.041 236.411 214.009C237.561 210.121 236.313 208.162 232.329 207.57C231.92 207.509 231.507 207.434 231.117 207.301C230.905 207.229 230.739 207.022 230.478 206.818C230.835 205.443 231.911 205.278 232.992 205.394ZM128.963 171.634C133.779 172.701 138.078 174.85 141.77 178.107C142.815 179.028 143.657 180.214 144.438 181.381C144.862 182.014 145.355 182.858 144.116 183.997C143.382 183.292 142.668 182.653 142.006 181.963C136.924 176.667 130.785 173.664 123.38 173.587C115.515 173.506 109.191 177.838 106.363 185.217C104.042 191.273 103.649 197.537 104.6 203.921C104.85 205.601 105.414 207.31 104.466 209.299C103.905 208.885 103.33 208.666 103.12 208.259C102.784 207.609 102.588 206.844 102.511 206.109C101.79 199.25 101.911 192.408 104.051 185.806C106.51 178.224 111.444 173.025 119.518 171.383C122.657 170.745 125.837 170.941 128.963 171.634ZM166.171 198.655C169.863 199.069 173.351 199.926 176.446 202.032C177.464 202.724 178.424 203.585 179.186 204.552C179.681 205.18 179.769 206.138 180.077 207.062C178.375 207.689 177.557 206.759 176.763 205.977C174.565 203.809 171.936 202.521 169.004 201.687C163.221 200.041 158.205 201.115 154.029 205.642C153.041 206.712 151.942 207.679 150.81 208.774C150.047 207.504 150.53 206.688 151.067 205.964C154.841 200.88 159.572 197.915 166.171 198.655ZM185.166 200.237C185.617 200.887 185.635 201.836 185.853 202.639C184.204 203.317 183.486 202.438 182.773 201.633C181.449 200.134 180.184 198.583 178.847 197.097C171.6 189.048 157.233 190.322 151.265 197.596C149.315 199.973 147.558 202.507 145.711 204.968C145.147 205.719 144.961 206.874 143.064 206.938C143.289 205.933 143.317 205.108 143.65 204.433C147.836 195.956 154.344 190.573 163.982 189.301C173.632 188.027 180.058 192.878 185.166 200.237ZM138.636 185.314C139.096 185.69 139.331 186.338 139.652 186.833C138.736 187.933 137.869 187.61 137.039 187.194C135.85 186.599 134.692 185.944 133.516 185.321C125.689 181.177 116.78 184.473 113.593 192.703C112.257 196.154 111.746 199.736 111.967 203.424C112.025 204.382 112.309 205.391 111.109 206.413C110.738 205.653 110.32 205.07 110.157 204.423C108.414 197.498 112.152 187.657 118.01 183.693C124.474 179.318 132.715 180.458 138.636 185.314ZM191.684 197.402C191.865 198.03 191.912 198.721 191.881 199.377C191.864 199.747 191.562 200.103 191.406 200.428C190.023 200.545 189.561 199.56 189.124 198.697C188.447 197.356 187.837 195.972 187.316 194.561C183.724 184.831 172.146 178.133 159.829 182.512C151.015 185.646 144.888 191.71 140.964 200.133C140.294 201.571 139.764 203.074 139.115 204.523C138.927 204.944 138.551 205.28 137.877 206.151C137.715 205.043 137.468 204.427 137.58 203.886C137.831 202.662 138.15 201.429 138.632 200.279C142.614 190.777 149.293 183.907 158.922 180.3C173.063 175.001 187.384 182.509 191.684 197.402ZM133.848 190.942C134.52 191.113 135.113 191.596 135.714 191.921C135.412 193.226 134.566 193.303 133.741 193.314C132.332 193.332 130.922 193.261 129.513 193.27C124.046 193.303 120.053 196.843 119.295 202.27C119.177 203.116 118.913 203.941 118.64 205.101C116.821 203.899 117.023 202.553 117.163 201.376C117.724 196.649 120.348 193.428 124.61 191.516C127.609 190.169 130.72 190.146 133.848 190.942ZM134.139 198.75C132.202 200.89 129.248 200.881 127.417 202.74C126.472 200.977 126.577 200.49 127.85 199.4C129.614 197.889 132.064 197.534 134.139 198.75ZM215.2 171.451C222.017 175.129 225.124 181.607 226.303 188.987C226.783 191.992 226.396 195.143 226.344 198.227C226.334 198.88 226.19 199.596 225.885 200.161C225.609 200.67 225.028 201.012 224.582 201.428C224.224 200.917 223.6 200.427 223.558 199.891C223.427 198.229 223.424 196.543 223.543 194.878C223.847 190.6 222.971 186.586 221.259 182.689C218.315 175.987 212.968 172.456 206.121 170.942C200.555 169.711 195.038 170.12 189.781 172.31C187.521 173.252 185.516 174.818 183.401 176.112C182.788 176.487 182.196 176.898 181.547 177.324C180.695 176.175 181.304 175.339 181.927 174.778C183.401 173.45 184.853 171.955 186.589 171.091C196.149 166.331 205.817 166.387 215.2 171.451ZM213.348 183.066C216.422 186.49 217.711 190.58 217.61 195.138C217.587 196.165 217.182 197.183 216.878 198.543C215.091 197.498 215.192 196.221 215.027 195.113C214.854 193.948 214.932 192.742 214.718 191.589C213.471 184.847 207.408 179.563 200.503 179.15C196.089 178.886 191.902 179.668 188.035 181.946C187.435 182.3 186.763 182.527 185.59 183.052C185.873 181.963 185.86 181.332 186.163 180.991C186.71 180.378 187.393 179.842 188.11 179.443C195.914 175.101 206.883 175.863 213.348 183.066ZM60.6383 191.722C59.536 191.722 58.4812 191.732 57.4269 191.721C54.9366 191.695 54.1113 192.629 54.4716 195.084C54.567 195.736 54.6824 196.385 54.756 197.04C54.7723 197.183 54.6498 197.342 54.5907 197.493C52.7325 197.146 51.8285 195.696 51.9952 193.33C52.1679 190.875 54.1122 188.959 56.549 188.843C58.6986 188.74 60.2789 189.747 60.6383 191.722ZM55.1357 166.626C59.1425 168.063 62.4883 170.46 64.9643 173.984C65.5728 174.85 66.2534 175.757 65.6596 176.998C64.2827 176.872 63.4599 175.897 62.4992 175.129C60.5541 173.574 58.6875 171.873 56.5788 170.578C50.6935 166.965 45.0892 168.439 41.4835 174.381C38.5644 179.19 37.8979 184.356 39.1313 189.813C39.4808 191.359 39.8577 192.901 40.1272 194.462C40.2108 194.947 39.9806 195.487 39.8938 196.002C39.7124 196.061 39.531 196.122 39.3497 196.181C38.7882 195.435 38.0363 194.767 37.696 193.929C34.3443 185.677 35.1391 177.867 40.6544 170.812C43.9266 166.627 48.9357 164.403 55.1357 166.626ZM197.264 184.922C200.821 185.115 203.695 186.705 205.198 190.053C206.012 191.868 206.783 193.925 204.884 196.181C204.308 195.438 203.807 194.943 203.496 194.348C203.193 193.768 203.086 193.085 202.889 192.449C201.674 188.513 198.433 186.616 194.41 187.485C193.846 187.606 193.286 187.756 192.715 187.83C192.492 187.859 192.248 187.717 191.628 187.549C193.014 185.098 195.128 184.806 197.264 184.922ZM200.553 195.099C198.793 195.346 195.906 194.17 195.186 192.913C194.786 192.216 195.239 191.561 196.184 191.472C198.067 191.293 200.219 193.079 200.553 195.099ZM53.7472 177.584C56.1179 177.773 58.2655 178.688 60.1781 180.066C60.8251 180.532 61.193 181.394 61.6883 182.075C61.5664 182.255 61.4445 182.434 61.3231 182.613C60.4814 182.433 59.6172 182.324 58.803 182.057C57.3853 181.594 56.0226 180.948 54.5939 180.532C50.8449 179.439 47.4249 181.541 46.9442 185.481C46.6853 187.604 47.062 189.811 47.1834 191.978C47.242 193.016 47.3754 194.05 47.4776 195.116C46.0658 195.259 45.757 194.398 45.4363 193.661C44.0534 190.476 43.7042 187.148 44.5771 183.795C45.6081 179.833 49.523 177.248 53.7472 177.584ZM97.3944 163.603C101.72 165.204 105.104 168.124 107.86 171.781C108.524 172.663 109.306 173.611 108.75 175.162C107.02 174.847 106.025 173.863 104.994 172.91C103.348 171.387 101.775 169.755 99.9825 168.425C93.5213 163.631 84.8545 163.827 79.0347 168.837C76.5549 170.972 74.5575 173.514 73.1163 176.483C71.423 179.971 70.4616 183.645 70.1653 187.511C70.0859 188.551 69.848 189.579 69.6736 190.672C67.9776 190.467 67.6804 189.422 67.7311 188.317C67.8256 186.244 67.8868 184.142 68.2821 182.115C69.4705 176.029 72.3941 170.851 77.1086 166.843C83.1727 161.689 90.058 160.889 97.3944 163.603ZM93.5921 173.684C96.4788 174.505 98.6646 176.473 100.614 178.677C101.02 179.136 101.197 179.799 101.589 180.589C99.9741 181.138 99.0927 180.41 98.2058 179.861C96.9344 179.073 95.7441 178.151 94.468 177.37C91.0566 175.283 87.6415 175.512 84.5123 178.002C82.7179 179.43 81.3708 181.217 80.4986 183.335C80.0884 184.332 79.8152 185.385 79.4774 186.411C79.2111 187.221 79.3133 188.559 78.0272 188.271C76.9162 188.022 77.1944 186.793 77.2402 185.913C77.5643 179.648 82.7408 173.903 88.9418 173.15C90.4539 172.967 92.1044 173.261 93.5921 173.684ZM96.6013 183.792C92.8799 184.756 89.5883 185.609 86.2489 186.475C85.5776 185.819 85.828 185.122 86.3027 184.45C88.0302 182.001 93.6631 181.404 96.6013 183.792ZM262.432 162.225C262.951 165.197 262.865 168.207 262.18 171.175C261.102 175.844 259.385 180.252 256.793 184.292L256.725 184.399C256.088 185.398 255.432 186.485 253.821 186.15C253.36 184.897 254.057 183.902 254.511 182.866C255.982 179.51 257.598 176.208 258.898 172.787C260.475 168.635 260.727 164.32 259.528 160.002C257.049 151.072 247.517 145.08 238.403 146.83C236.144 147.263 233.984 148.212 231.779 148.927C231.183 149.121 230.59 149.327 229.698 149.628C229.591 147.794 230.618 147.182 231.549 146.806C233.542 146.002 235.581 145.169 237.681 144.8C249.002 142.812 260.451 150.891 262.432 162.225ZM247.163 159.169C251.954 162.269 253.98 167.518 252.657 173.064C252.024 175.716 250.626 177.977 249.067 180.148C248.676 180.693 248.016 181.048 247.48 181.49C247.293 181.384 247.107 181.278 246.919 181.172C247.099 180.345 247.184 179.484 247.481 178.701C247.891 177.614 248.424 176.568 248.968 175.538C252.358 169.119 250.196 161.218 240.831 158.906C238.65 158.368 236.407 158.083 234.127 158.578C233.383 158.739 232.564 158.552 231.266 158.506C232.47 156.785 233.75 156.566 234.95 156.435C239.317 155.959 243.446 156.764 247.163 159.169ZM238.806 168.67C240.807 170.491 241.268 172.933 240.036 175.666C239.633 176.558 239.138 177.454 238.491 178.181C238.129 178.587 237.366 178.649 236.783 178.866C236.632 178.281 236.277 177.66 236.377 177.119C236.537 176.247 237.004 175.43 237.33 174.585C238.456 171.679 237.181 169.669 234.032 169.482C232.633 169.399 231.226 169.468 229.876 169.468C229.337 168.28 230.073 167.827 230.833 167.432C233.16 166.227 236.745 166.795 238.806 168.67ZM148.165 159.137C153.783 160.097 157.787 165.549 157.753 171.934C157.747 173.23 157.98 174.642 156.635 176.243C156.173 175.383 155.768 174.873 155.619 174.295C155.366 173.321 155.28 172.303 155.116 171.305C154.991 170.558 154.909 169.797 154.715 169.068C152.947 162.429 148.401 160.269 142.154 161.659C139.141 162.33 136.742 164.157 134.582 166.326C133.956 166.954 133.307 167.558 132.679 168.164C131.735 167.421 132.014 166.783 132.389 166.241C136.339 160.534 142.52 158.174 148.165 159.137ZM146.258 169.506C148.516 170.285 150.189 172.525 150.151 175.456C149.045 174.598 148.194 174.12 147.58 173.425C146.15 171.805 144.511 171.012 142.358 171.54C142.147 171.592 141.893 171.46 141.675 171.417C141.219 170.598 141.677 170.114 142.255 169.762C143.532 168.981 144.875 169.03 146.258 169.506ZM166.761 169.181C167.037 170.395 167.168 171.657 167.213 172.903C167.24 173.66 166.972 174.429 166.837 175.193C165.329 175.081 165.068 174.144 164.839 173.276C164.499 171.987 164.256 170.672 163.989 169.365C162.078 160.023 153.437 152.722 144.437 153.261C135.598 153.789 128.984 157.894 125.47 166.39C125.162 167.135 125.124 168.61 123.881 168.176C122.591 167.726 123.258 166.436 123.532 165.544C124.752 161.571 127.167 158.365 130.483 156.005C146.12 144.873 163.293 153.939 166.761 169.181ZM207.049 133.697C215.76 134.853 222.684 139.016 226.265 147.375C229.763 155.542 228.073 163.212 223.119 170.321C222.837 170.726 222.449 171.064 222.072 171.389C221.903 171.534 221.638 171.57 221.086 171.783C220.721 169.948 221.533 168.64 222.186 167.332C223.611 164.478 224.782 161.562 225.145 158.356C226.174 149.255 221.71 141.387 213.337 137.789C205.837 134.565 198.734 135.263 192.128 140.189C191.595 140.587 191.042 140.959 190.482 141.318C190.365 141.392 190.174 141.349 189.801 141.375C189.832 140.918 189.701 140.361 189.921 140.087C190.745 139.057 191.568 137.967 192.6 137.173C196.88 133.88 201.905 133.014 207.049 133.697ZM172.514 159.725C178.016 160.065 180.78 165.563 180.283 169.772C180.248 170.071 180.002 170.346 179.8 170.734C178.287 170.573 177.991 169.574 177.637 168.665C177.246 167.664 176.99 166.606 176.543 165.632C175.233 162.774 172.898 161.707 169.789 162.437C169.091 162.6 168.375 162.684 167.667 162.804C167.132 161.456 167.813 160.721 168.652 160.435C169.882 160.015 171.24 159.647 172.514 159.725ZM179.934 151.798C185.694 154.963 189.052 162.108 186.634 166.536C185.234 165.115 184.867 163.493 184.397 161.931C183.67 159.516 182.644 157.299 180.719 155.575C177.638 152.815 174.14 151.857 170.209 153.228C168.356 153.874 166.616 154.85 164.83 155.687C164.089 156.034 163.339 156.599 162.752 155.478C165.377 150.565 174.242 148.671 179.934 151.798ZM216.381 152.768C217.447 156.696 216.481 160.344 214.817 163.882C214.645 164.246 214.341 164.559 214.053 164.849C213.89 165.013 213.632 165.081 213.353 165.224C212.241 164.702 212.468 163.78 212.691 162.905C213.039 161.537 213.482 160.191 213.811 158.817C214.32 156.685 214.448 154.557 213.684 152.429C211.679 146.84 206.342 144.3 200.392 146.133C199.182 146.505 197.965 146.856 196.651 147.247C196.418 145.679 197.37 145.329 198.116 144.919C203.993 141.687 213.88 143.563 216.381 152.768ZM198.438 160.863C198.494 162.862 198.442 163.032 197.316 164.7C195.985 164.122 195.771 163.066 195.589 161.979C195.257 159.999 195.038 157.989 194.549 156.049C192.309 147.16 184.894 141.057 175.804 140.709C172.087 140.567 168.566 141.59 165.264 143.325C162.061 145.008 159.283 147.25 156.724 149.801C156.039 150.484 155.309 152.029 154.183 150.897C153.235 149.944 154.404 148.861 155.093 148.118C159.699 143.157 165.175 139.781 171.929 138.55C185.23 136.125 198.041 146.696 198.438 160.863ZM119.025 160.625C119.652 160.801 120.178 161.345 120.752 161.719C120.72 161.936 120.688 162.153 120.656 162.37C119.663 162.599 118.679 162.919 117.672 163.03C116.774 163.128 115.851 162.962 114.939 162.973L114.588 162.977C112.799 162.999 111.027 163.065 109.486 164.295C109.153 164.56 108.467 164.369 107.944 164.389C107.96 163.841 107.76 163.096 108.035 162.786C108.734 161.995 109.549 161.15 110.49 160.772C113.279 159.652 116.178 159.822 119.025 160.625ZM207.172 152.916C208.787 154.782 209.229 159.55 207.935 161.672C207.751 161.975 207.315 162.122 206.999 162.338C205.886 161.602 206.086 160.544 206.028 159.587C205.956 158.43 206.02 157.255 205.851 156.114C205.567 154.203 204.88 153.586 203.002 153.216C202.332 153.085 201.668 152.918 200.553 152.665C203.013 150.691 205.501 150.987 207.172 152.916ZM128.596 141.006C130.915 142.595 132.676 144.69 134.069 147.107C134.804 148.383 134.792 148.523 134.392 150.144C133.24 150.386 132.558 149.632 131.908 148.885C131.196 148.067 130.551 147.191 129.856 146.357C125.135 140.696 118.84 138.94 111.884 139.745C101.105 140.993 94.5344 147.803 90.1729 157.232C89.5984 158.474 89.474 159.995 87.5421 161.289C87.5118 160.004 87.2873 159.171 87.5137 158.489C88.1951 156.437 88.821 154.313 89.879 152.452C94.4265 144.455 100.862 138.796 110.193 137.295C116.721 136.245 122.986 137.158 128.596 141.006ZM118.234 150.46C119.538 150.999 120.859 151.511 122.109 152.158C122.858 152.545 123.483 153.169 124.164 153.686C124.098 153.88 124.031 154.074 123.966 154.267C123.367 154.305 122.737 154.483 122.177 154.356C120.479 153.969 118.755 153.603 117.138 152.98C111.316 150.738 104.508 152.173 100.321 158.003C100.103 158.307 99.7297 158.501 99.2048 158.928C98.2367 157.288 98.8388 156.191 99.5556 155.179C101.188 152.871 103.447 151.321 106.065 150.354C110.113 148.859 114.195 148.793 118.234 150.46Z" fill="#D08F52"/>
<path fill-rule="evenodd" clip-rule="evenodd" d="M207.132 89.2462C211.226 72.8553 221.302 61.3114 237.08 54.935L237.093 54.9302C240.871 53.571 244.457 52.7528 248.056 52.4288C264.302 50.9664 278.199 56.5005 289.361 68.8776C296.277 76.5454 300.415 85.7211 301.662 96.1501C303.674 112.972 298.667 127.418 286.779 139.085C285.659 140.185 284.968 141.511 284.667 143.14C284.492 144.086 284.433 144.884 284.491 145.511C284.531 145.949 284.481 146.362 284.433 146.761C284.379 147.205 284.329 147.624 284.406 148.04C284.52 148.652 284.583 149.276 284.644 149.88C284.711 150.55 284.781 151.242 284.92 151.898C285.31 153.732 285.742 155.59 286.159 157.387C286.477 158.753 286.805 160.164 287.113 161.557C287.291 162.364 287.527 162.924 288.202 163.393C289.458 164.266 289.681 165.271 288.927 166.653C288.645 167.172 288.678 167.591 288.824 168.098C289.224 169.49 289.6 170.919 289.922 172.149C290.231 173.33 289.963 174.043 288.936 174.778C288.743 174.916 288.577 175.148 288.441 175.356C288.262 175.63 288.09 175.923 287.925 176.207C287.603 176.759 287.27 177.33 286.842 177.826C285.214 179.709 283.848 181.174 282.544 182.435C281.05 183.879 279.404 185.33 277.513 186.873C276.798 187.457 276.032 187.897 275.219 188.193C273.788 188.713 272.211 188.787 270.504 188.412L270.228 188.352C269.911 188.284 269.582 188.214 269.26 188.121C264.802 186.833 260.83 184.4 257.456 180.888C256.651 180.05 256.214 179.037 256.119 177.791C256.002 176.252 255.822 174.688 255.649 173.176C255.576 172.545 255.504 171.915 255.436 171.283C255.408 171.021 255.311 170.585 255.216 170.334C255.164 170.297 255.094 170.243 255.006 170.169C254.08 169.389 253.997 168.948 254.583 167.927C254.626 167.852 254.68 167.778 254.734 167.705C254.765 167.664 254.808 167.607 254.831 167.568C254.817 167.328 254.781 166.847 254.726 166.587C254.618 166.081 254.512 165.586 254.396 165.095C253.742 162.328 252.89 159.147 251.059 156.401C248.779 152.982 246.062 150.988 242.754 150.303C242.158 150.18 241.594 150.001 240.971 149.796C225.945 144.864 215.297 134.842 209.322 120.01C205.278 109.97 204.542 99.6199 207.132 89.2462Z" fill="white" fill-opacity="0.666"/>
<path fill-rule="evenodd" clip-rule="evenodd" d="M264.182 96.9229C267.575 95.2226 269.789 90.9359 268.97 87.492C268.84 86.9464 268.61 86.4022 268.321 85.9603C268.042 85.5324 267.706 85.2915 267.347 85.2642C267.209 85.2535 267.07 85.2743 266.931 85.3249C266.697 85.4101 266.463 85.5805 266.24 85.8307C265.945 86.162 265.669 86.6037 265.42 87.1432C264.355 89.4508 263.791 94.0399 264.182 96.9229ZM237.677 94.447C237.179 93.8223 236.671 93.3263 236.167 92.9725C235.712 92.6528 235.268 92.5537 234.884 92.6858C234.879 92.6878 234.873 92.6895 234.867 92.6915C234.481 92.8323 234.176 93.211 234.009 93.7601C233.755 94.5951 233.884 95.4288 234.372 96.1074C235.058 97.061 235.73 97.8178 236.426 98.4213C237.726 99.5475 239.24 100.364 241.039 100.907C240.088 98.1665 239.038 96.1548 237.677 94.447ZM251.646 154.313C251.648 154.22 251.651 154.13 251.646 154.051C251.36 149.492 250.569 144.913 249.85 140.978L249.246 137.672C248.085 131.32 246.924 124.968 245.772 118.615C244.842 113.481 243.728 108.79 242.366 104.276C242.164 103.606 241.85 103.276 241.166 103.015C239.64 102.433 238.143 101.729 236.714 100.921C235.085 99.9995 233.793 98.7737 232.875 97.2777C232.155 96.1034 231.896 94.8973 232.105 93.6924C232.336 92.3672 233.086 91.3688 234.165 90.9531C235.206 90.5565 236.38 90.7747 237.389 91.5621C238.188 92.1867 238.972 93.0335 239.717 94.0796C241.142 96.079 242.261 98.3322 243.045 100.777C243.306 101.591 243.708 101.925 244.477 101.968C244.72 101.982 244.957 102.021 245.185 102.059C245.281 102.075 245.377 102.091 245.473 102.105C248.641 102.564 252.04 102.213 256.169 101.001C258.396 100.348 260.441 99.413 262.25 98.222C262.249 97.7643 262.246 97.314 262.243 96.8689C262.235 95.7329 262.227 94.6597 262.261 93.5699C262.343 90.9083 262.728 88.8306 263.47 87.0314C263.934 85.9069 264.489 85.0003 265.119 84.337C265.762 83.6606 266.579 83.3168 267.421 83.3699C268.315 83.4261 269.145 83.9118 269.756 84.7379C269.987 85.0504 270.189 85.4259 270.391 85.9197C271.441 88.4874 271.219 91.1629 269.731 93.8717C268.925 95.3384 267.75 96.6571 266.137 97.9035C265.683 98.2537 265.217 98.5952 264.767 98.9255C264.613 99.0388 264.46 99.1513 264.307 99.2637C264.307 99.2827 264.307 99.3009 264.308 99.3188C264.309 99.4567 264.31 99.5654 264.321 99.6681C264.698 103.213 265.445 106.756 266.605 110.501C267.846 114.511 269.427 118.728 271.439 123.395C274.42 130.309 277.522 136.225 280.921 141.48C282.075 143.263 283.176 145.085 284.006 146.472L284.073 146.581C284.246 146.857 284.482 147.235 284.385 147.636C284.33 147.862 284.181 148.048 283.942 148.189L283.774 148.288L283.599 148.201C283.357 148.082 283.179 147.962 282.991 147.835C282.861 147.747 282.726 147.655 282.557 147.556L282.474 147.507L282.262 147.14C281.953 146.604 281.634 146.05 281.288 145.534C275.793 137.341 271.091 128.141 267.314 118.189C265.778 114.142 264.081 109.321 263.139 104.242C262.962 103.283 262.806 102.327 262.64 101.315C262.589 100.999 262.536 100.677 262.482 100.351C256.12 103.593 250.127 104.737 244.193 103.84C244.228 104.001 244.258 104.138 244.292 104.274C244.574 105.407 244.877 106.557 245.17 107.669C245.811 110.1 246.473 112.614 246.964 115.123C248.198 121.436 249.364 127.87 250.491 134.093C250.895 136.32 251.298 138.547 251.705 140.774C252.467 144.939 253.233 149.386 253.488 153.936C253.492 154.009 253.502 154.089 253.512 154.171C253.555 154.539 253.609 154.997 253.321 155.322C253.149 155.515 252.895 155.613 252.565 155.613C252.289 155.613 252.068 155.53 251.907 155.366C251.628 155.079 251.638 154.654 251.646 154.313Z" fill="black"/>
<path fill-rule="evenodd" clip-rule="evenodd" d="M285.905 175.933C284.818 176.269 283.734 176.611 282.65 176.953C280.622 177.593 278.525 178.255 276.448 178.86C271.536 180.291 267.48 181.088 263.684 181.372C262.678 181.447 261.637 181.374 260.719 181.31C260.666 181.307 260.615 181.301 260.566 181.294C263.3 183.594 266.079 185.171 269.009 186.091C269.575 186.268 270.149 186.41 270.736 186.551C272.972 187.09 274.931 186.658 276.558 185.267L277.09 184.813C278.405 183.693 279.765 182.534 281.014 181.313C282.181 180.171 283.307 178.941 284.395 177.752C284.76 177.354 285.124 176.956 285.49 176.56L285.687 176.349C285.822 176.205 285.976 176.04 286.139 175.861C286.051 175.888 285.972 175.912 285.905 175.933ZM251.601 153.919C251.696 154.031 251.792 154.143 251.888 154.253C253.268 152.986 254.921 152.255 256.368 151.704C263.598 148.955 269.723 147.712 275.643 147.79C277.968 147.82 279.768 147.441 281.478 146.557C282.288 146.139 282.578 145.846 282.591 145.037C282.61 143.799 282.888 142.567 283.158 141.524C283.501 140.201 284.19 139.026 285.207 138.03C297.501 126.002 302.3 111.261 299.472 94.2157C297.854 84.464 293.354 75.5351 286.458 68.3943C279.455 61.1434 270.596 56.4035 260.836 54.6879C252.95 53.3013 245.39 53.9057 238.308 56.4818C237.155 56.901 236.015 57.3726 234.889 57.896C220.969 64.3658 212.173 75.3659 208.744 90.5902C206.448 100.782 207.442 111.265 211.618 120.905C215.782 130.519 222.715 138.393 231.668 143.677C235.487 145.931 239.388 147.55 243.263 148.49C246.282 149.222 248.857 150.821 251.133 153.38C251.292 153.558 251.446 153.738 251.601 153.919ZM258.142 172.276C258.933 171.817 259.679 171.384 260.479 171.029C261.113 170.747 261.747 170.484 262.383 170.237C260.628 170.533 258.973 170.687 257.385 170.702C257.349 170.703 257.3 170.7 257.244 170.696C257.281 171.013 257.322 171.342 257.363 171.675C257.404 172.002 257.445 172.332 257.483 172.657C257.706 172.529 257.925 172.402 258.142 172.276ZM282.845 163.279L282.624 163.228C282.514 163.205 282.483 163.205 282.485 163.203C282.47 163.221 282.412 163.244 282.364 163.274C282.275 163.33 282.152 163.406 281.97 163.502C278.822 165.186 275.401 166.616 271.445 167.89C275.276 167.385 279.134 167.484 282.99 168.191C283.556 168.295 283.961 168.245 284.344 168.023C284.484 167.941 284.625 167.861 284.766 167.781C285.101 167.592 285.446 167.396 285.769 167.186C285.958 167.063 286.142 166.907 286.337 166.742C286.38 166.705 286.424 166.668 286.469 166.631C286.459 166.586 286.45 166.541 286.44 166.496C286.388 166.253 286.339 166.022 286.267 165.806C286.095 165.295 285.919 164.532 285.845 164.196C285.012 163.773 283.816 163.501 282.845 163.279ZM282.506 148.13C282.219 148.269 281.941 148.404 281.558 148.561C281.911 148.691 282.259 148.84 282.609 149.011L282.537 148.115C282.526 148.12 282.516 148.125 282.506 148.13ZM254.234 155.073C254.726 155.071 255.211 154.996 255.724 154.917C255.923 154.886 256.123 154.855 256.322 154.829C257.532 154.668 258.816 154.487 260.051 154.19C264.717 153.067 269.133 151.416 272.997 149.822C265.722 150.365 259.401 152.075 253.739 155.025C253.93 155.054 254.127 155.074 254.234 155.073ZM276.442 154.876L276.561 154.871C276.702 154.863 276.86 154.854 277.023 154.877C279.887 154.635 280.698 153.836 282.037 152.514C282.439 152.117 282.622 151.782 282.582 151.517C282.54 151.243 282.247 150.964 281.712 150.688C280.102 149.858 278.719 149.723 277.251 150.257C277.2 150.276 277.148 150.295 277.097 150.315C272.773 152.018 268.449 153.576 264.244 154.945C260.385 156.201 257.085 157.022 253.574 156.937C253.792 157.425 254.016 157.932 254.239 158.436C254.489 159 254.738 159.561 254.974 160.091C261.148 156.874 268.175 155.168 276.442 154.876ZM275.155 156.761C270.058 156.727 259.93 159.281 256.685 161.504C257.257 161.627 257.494 161.605 257.955 161.564C259.366 161.435 261.005 161.269 262.586 160.93C267.309 159.919 271.754 158.188 275.155 156.761ZM258.032 165.29C259.419 164.682 260.728 164.109 262.111 163.652C268.881 161.42 275.154 160.59 281.289 161.114C282.378 161.207 283.626 160.516 284.13 159.539C284.435 158.949 284.371 158.639 283.876 158.311C283.3 157.929 282.597 157.598 281.843 157.354C280.502 156.921 279.334 156.913 278.148 157.345C277.916 157.429 277.684 157.53 277.449 157.648C272.813 159.977 267.81 161.709 262.151 162.945C260.508 163.304 258.338 163.651 255.862 163.25L256.513 165.949C257.028 165.731 257.537 165.508 258.032 165.29ZM257.338 168.842C265.132 168.462 272.726 165.686 279.263 162.857C279.251 162.857 279.24 162.857 279.228 162.856C275.3 162.714 271.143 163.186 266.521 164.298C264.162 164.867 261.091 165.719 258.265 167.279C258.137 167.35 258.01 167.425 257.884 167.501C257.731 167.592 257.578 167.683 257.421 167.768C256.94 168.027 256.892 168.269 256.97 168.577C257.01 168.736 257.168 168.85 257.338 168.842ZM259.099 174.238C259.576 174.306 260.07 174.377 260.548 174.399C263.41 174.529 266.152 174.006 268.456 173.477C272.711 172.5 276.842 171.208 280.739 169.637C280.46 169.612 280.212 169.59 280.059 169.577C275.708 169.209 271.376 169.562 267.185 170.625C265.063 171.164 262.813 171.817 260.722 172.942C260.185 173.231 259.654 173.567 259.141 173.891C258.991 173.987 258.838 174.083 258.684 174.179C258.824 174.198 258.962 174.218 259.099 174.238ZM281.878 155.347C282.73 155.485 283.286 155.7 283.83 155.946L283.422 154.139C283.024 154.587 282.502 154.996 281.878 155.347ZM260.213 178.573C261.668 177.643 263.315 177.338 264.909 177.043L264.959 177.034C267.86 176.497 270.822 176.032 273.686 175.583C274.72 175.421 275.753 175.259 276.786 175.094C277.875 174.919 278.965 174.748 280.055 174.576C282.184 174.241 284.386 173.894 286.547 173.53C287.027 173.45 287.083 173.441 288.072 173.062C288.007 172.987 287.939 172.913 287.876 172.846C287.828 172.794 287.782 172.745 287.742 172.7C286.886 171.742 285.739 171.039 284.133 170.489C283.957 170.428 283.628 170.47 283.336 170.593C279.429 172.216 275.886 173.448 272.505 174.361C269.263 175.236 265.795 176.104 262.174 176.268C260.821 176.329 259.379 176.343 257.842 175.853C257.86 176.036 257.877 176.214 257.893 176.389C257.972 177.214 258.039 177.926 258.179 178.633C258.249 178.989 258.505 179.42 258.829 179.731C258.976 179.871 259.122 180.01 259.269 180.146C259.267 180.14 259.266 180.133 259.265 180.127C259.131 179.265 259.808 178.832 260.213 178.573ZM263.947 179.34C267.69 179.139 271.343 178.298 274.918 177.296C271.246 177.739 267.533 178.293 263.947 179.34ZM284.723 161.719L285.255 161.878L285.147 161.329L284.723 161.719ZM286.058 169.236L287.44 169.989L287.016 168.612L286.058 169.236ZM207.132 89.2462C211.226 72.8553 221.302 61.3114 237.08 54.935L237.093 54.9302C240.871 53.571 244.457 52.7528 248.056 52.4288C264.302 50.9664 278.199 56.5005 289.361 68.8776C296.277 76.5454 300.415 85.7211 301.662 96.1501C303.674 112.972 298.667 127.418 286.779 139.085C285.659 140.185 284.968 141.511 284.667 143.14C284.492 144.086 284.433 144.884 284.491 145.511C284.531 145.949 284.481 146.362 284.433 146.761C284.379 147.205 284.329 147.624 284.406 148.04C284.52 148.652 284.583 149.276 284.644 149.88C284.711 150.55 284.781 151.242 284.92 151.898C285.31 153.732 285.742 155.59 286.159 157.387C286.477 158.753 286.805 160.164 287.113 161.557C287.291 162.364 287.527 162.924 288.202 163.393C289.458 164.266 289.681 165.271 288.927 166.653C288.645 167.172 288.678 167.591 288.824 168.098C289.224 169.49 289.6 170.919 289.922 172.149C290.231 173.33 289.963 174.043 288.936 174.778C288.743 174.916 288.577 175.148 288.441 175.356C288.262 175.63 288.09 175.923 287.925 176.207C287.603 176.759 287.27 177.33 286.842 177.826C285.214 179.709 283.848 181.174 282.544 182.435C281.05 183.879 279.404 185.33 277.513 186.873C276.798 187.457 276.032 187.897 275.219 188.193C273.788 188.713 272.211 188.787 270.504 188.412L270.228 188.352C269.911 188.284 269.582 188.214 269.26 188.121C264.802 186.833 260.83 184.4 257.456 180.888C256.651 180.05 256.214 179.037 256.119 177.791C256.002 176.252 255.822 174.688 255.649 173.176C255.576 172.545 255.504 171.915 255.436 171.283C255.408 171.021 255.311 170.585 255.216 170.334C255.164 170.297 255.094 170.243 255.006 170.169C254.08 169.389 253.997 168.948 254.583 167.927C254.626 167.852 254.68 167.778 254.734 167.705C254.765 167.664 254.808 167.607 254.831 167.568C254.817 167.328 254.781 166.847 254.726 166.587C254.618 166.081 254.512 165.586 254.396 165.095C253.742 162.328 252.89 159.147 251.059 156.401C248.779 152.982 246.062 150.988 242.754 150.303C242.158 150.18 241.594 150.001 240.971 149.796C225.945 144.864 215.297 134.842 209.322 120.01C205.278 109.97 204.542 99.6199 207.132 89.2462Z" fill="black"/>
<path fill-rule="evenodd" clip-rule="evenodd" d="M167.419 82.3801C166.832 74.406 169.79 68.2931 176.211 64.2115C179.17 62.33 182.691 60.997 186.975 60.1356C188.35 59.8593 189.729 59.6482 191.076 59.5081C192.736 59.3359 194.397 59.2662 196.013 59.3008C197.626 59.3357 199.24 59.4754 200.811 59.716C202.378 59.9559 203.945 60.3031 205.47 60.7479C206.989 61.191 208.509 61.7437 209.989 62.3904C211.462 63.0347 212.935 63.7902 214.368 64.6361C215.081 65.0577 215.8 65.5107 216.505 65.9829C216.856 66.2186 217.211 66.4637 217.56 66.7119C217.729 66.832 217.895 66.9548 218.059 67.0802C218.122 67.1286 218.191 67.1704 218.259 67.2127C218.375 67.2849 218.507 67.3669 218.627 67.4769C218.679 67.5248 218.727 67.5753 218.776 67.626C218.817 67.6697 218.859 67.7135 218.904 67.7534C218.914 67.7621 218.925 67.7707 218.937 67.78C219.011 67.8361 219.122 67.9211 219.182 68.0626C219.331 68.4126 219.245 68.8123 218.962 69.0811C218.692 69.3383 218.306 69.4019 217.975 69.2405C217.973 69.2398 217.861 69.1767 217.774 69.1283L217.697 69.0843C217.339 68.9023 217.027 68.6565 216.726 68.4191C216.582 68.3058 216.438 68.1922 216.289 68.0869C210.166 63.7374 203.497 61.4197 196.471 61.1981C189.109 60.9657 182.945 62.3904 177.625 65.5527C172.413 68.6509 169.598 73.2209 169.259 79.1349C168.979 83.9977 170.201 88.7695 172.89 93.3175C176.093 98.7364 180.474 103.242 186.281 107.093C191.784 110.741 198.042 113.618 205.413 115.889C218.824 120.021 232.87 122.602 248.354 123.78C260.944 124.738 273.437 124.386 283.996 123.915C284.674 123.884 285.352 123.853 286.03 123.822C291.306 123.579 296.762 123.328 302.148 123.55C310.953 123.913 318.532 125.906 325.32 129.644C327.991 131.115 330.143 132.703 331.898 134.499C332.633 135.252 333.241 136.13 333.829 136.98C333.955 137.162 334.08 137.343 334.206 137.522C334.524 137.974 334.642 138.357 334.567 138.695C334.529 138.865 334.42 139.105 334.114 139.28C334.053 139.315 333.993 139.343 333.934 139.365C333.766 139.426 333.602 139.435 333.446 139.391C333.087 139.292 332.899 138.953 332.747 138.681C332.71 138.614 332.673 138.547 332.634 138.486C331.487 136.707 330.79 135.951 329.992 135.26L329.604 134.96C327.961 133.694 326.262 132.384 324.462 131.343C320.431 129.012 315.979 127.398 310.853 126.408C306.515 125.571 301.906 125.224 296.764 125.348C292.745 125.445 288.658 125.605 284.707 125.76C282.128 125.861 279.461 125.965 276.837 126.051C257.687 126.677 241.941 125.707 227.283 122.999C217.945 121.273 207.979 119.154 198.372 115.37C190.563 112.295 184.632 108.802 179.707 104.378C174.499 99.6986 171.016 94.8435 169.061 89.5346C168.148 87.1941 167.596 84.7868 167.419 82.3801Z" fill="white"/>
<path fill-rule="evenodd" clip-rule="evenodd" d="M307.482 91.3052C305.669 91.9665 303.723 92.4241 301.654 92.6744C301.167 92.7331 300.713 92.7281 300.303 92.6589C299.945 92.599 299.618 92.1621 299.602 91.8468C299.584 91.5133 299.872 91.1459 300.149 90.9967C300.357 90.8845 300.582 90.881 300.78 90.8779C300.843 90.8771 300.906 90.8766 300.966 90.871C305.25 90.4595 309.003 89.0379 312.122 86.6453C317.905 82.209 321.486 75.9665 322.766 68.0917C323.552 63.2579 322.654 58.5488 320.098 54.0951C317.766 50.0314 314.547 46.6125 310.258 43.6438C304.991 39.9988 298.891 37.5747 291.608 36.2328C285.302 35.071 278.351 34.7867 269.732 35.3382C267.188 35.5009 264.603 35.6842 262.102 35.8618C257.715 36.1733 253.178 36.4951 248.71 36.7164C239.527 37.1705 230.745 36.1374 222.606 33.6455C223.035 34.0768 223.482 34.5163 223.92 34.948C224.834 35.8481 225.698 36.6983 226.367 37.4391C226.418 37.4954 226.467 37.5543 226.513 37.6152C226.861 38.0719 226.699 38.5918 226.358 38.8693C225.959 39.1956 225.405 39.1516 225.07 38.7675C225.037 38.7286 225.003 38.6913 224.968 38.6569C222.93 36.6414 220.877 34.5743 218.891 32.5754L218.567 32.249C218.536 32.2187 218.509 32.1851 218.484 32.1478C218.249 31.8031 218.291 31.3164 218.585 30.9901C218.943 30.5916 219.43 30.3525 220.117 30.2354C221.561 29.9909 223.004 29.7375 224.446 29.4842C225.523 29.2952 226.601 29.1058 227.679 28.9201C228.028 28.8601 228.462 28.7851 228.886 28.8311C229.221 28.8677 229.608 29.2233 229.668 29.5495C229.731 29.8955 229.445 30.3414 229.167 30.4798C228.885 30.6196 228.585 30.6671 228.295 30.713L228.125 30.7405C226.478 31.0242 224.829 31.3046 223.181 31.5851L222.432 31.7128C222.595 31.7713 222.759 31.8283 222.921 31.8804C228.79 33.7579 235.274 34.7559 242.746 34.9313C248.057 35.0563 253.442 34.6426 258.649 34.243C259.929 34.1444 261.208 34.0462 262.488 33.9554L263.744 33.866C270.048 33.4151 276.568 32.949 283.015 33.3395C291.102 33.8297 297.925 35.3442 303.874 37.9702C310.756 41.0084 315.956 45.001 319.771 50.1766C323.498 55.2326 325.165 60.2756 324.869 65.5937C324.405 73.9174 321.092 81.0175 315.022 86.6958C312.852 88.7265 310.329 90.267 307.482 91.3052Z" fill="white"/>
<path d="M46.3102 338.886C47.7474 338.886 48.7594 338.124 49.3599 336.511L53.7726 324.663L52.0318 324.636L49.171 332.895H49.0631L46.2023 324.636H44.475L48.3074 335.054L48.0105 335.864C47.4302 337.442 46.715 337.591 45.5545 337.294L45.1497 338.697C45.3116 338.778 45.7704 338.886 46.3102 338.886ZM59.7185 335.216C62.5253 335.216 64.4145 333.084 64.4145 329.872C64.4145 326.634 62.5253 324.501 59.7185 324.501C56.9117 324.501 55.0225 326.634 55.0225 329.872C55.0225 333.084 56.9117 335.216 59.7185 335.216ZM59.7185 333.786C57.5864 333.786 56.6148 331.95 56.6148 329.872C56.6148 327.794 57.5864 325.932 59.7185 325.932C61.8506 325.932 62.8222 327.794 62.8222 329.872C62.8222 331.95 61.8506 333.786 59.7185 333.786ZM73.3764 330.763C73.3764 332.706 71.8921 333.597 70.7046 333.597C69.3821 333.597 68.4375 332.625 68.4375 331.114V324.636H66.8452V331.222C66.8452 333.866 68.2486 335.135 70.1918 335.135C71.7571 335.135 72.7827 334.298 73.2685 333.246H73.3764V335H74.9688V324.636H73.3764V330.763ZM84.8213 328.766C84.8213 326.957 85.9751 325.932 87.5472 325.932C89.045 325.932 89.9491 326.876 89.9491 328.523V335H91.5415V328.415C91.5415 325.75 90.1246 324.501 88.006 324.501C86.3732 324.501 85.442 325.183 84.9563 326.256H84.8213V321.182H83.229V335H84.8213V328.766ZM97.5043 335.243C99.3125 335.243 100.257 334.271 100.581 333.597H100.662V335H102.254V328.172C102.254 324.879 99.7443 324.501 98.4219 324.501C96.8566 324.501 95.0753 325.041 94.2656 326.93L95.777 327.47C96.1279 326.714 96.9578 325.905 98.4759 325.905C99.94 325.905 100.662 326.681 100.662 328.01V328.064C100.662 328.833 99.8793 328.766 97.9901 329.009C96.0671 329.258 93.9688 329.683 93.9688 332.058C93.9688 334.082 95.5341 335.243 97.5043 335.243ZM97.7472 333.812C96.4787 333.812 95.5611 333.246 95.5611 332.139C95.5611 330.925 96.6676 330.547 97.9091 330.385C98.5838 330.304 100.392 330.115 100.662 329.791V331.249C100.662 332.544 99.6364 333.812 97.7472 333.812ZM113.264 324.636H111.537L108.676 332.895H108.568L105.707 324.636H103.98L107.812 335H109.432L113.264 324.636ZM119.34 335.216C121.445 335.216 122.983 334.163 123.469 332.598L121.931 332.166C121.526 333.246 120.588 333.786 119.34 333.786C117.471 333.786 116.182 332.578 116.108 330.358H123.631V329.683C123.631 325.824 121.337 324.501 119.178 324.501C116.371 324.501 114.509 326.714 114.509 329.899C114.509 333.084 116.344 335.216 119.34 335.216ZM116.108 328.982C116.216 327.369 117.356 325.932 119.178 325.932C120.905 325.932 122.012 327.227 122.012 328.982H116.108ZM127.646 328.766C127.646 326.957 128.766 325.932 130.29 325.932C131.768 325.932 132.665 326.897 132.665 328.523V335H134.258V328.415C134.258 325.77 132.848 324.501 130.749 324.501C129.184 324.501 128.212 325.203 127.726 326.256H127.592V324.636H126.053V335H127.646V328.766ZM138.544 321.182H137.059V325.932H138.544V321.182ZM145.886 324.636H143.673V322.153H142.081V324.636H140.516V325.986H142.081V332.463C142.081 334.271 143.538 335.135 144.888 335.135C145.482 335.135 145.859 335.027 146.075 334.946L145.752 333.516C145.617 333.543 145.401 333.597 145.05 333.597C144.348 333.597 143.673 333.381 143.673 332.031V325.986H145.886V324.636ZM157.836 335.216C160.13 335.216 161.641 333.812 161.911 331.977H160.319C160.022 333.111 159.077 333.786 157.836 333.786C155.946 333.786 154.732 332.22 154.732 329.818C154.732 327.47 155.973 325.932 157.836 325.932C159.239 325.932 160.076 326.795 160.319 327.74H161.911C161.641 325.797 159.995 324.501 157.809 324.501C155.002 324.501 153.14 326.714 153.14 329.872C153.14 332.976 154.921 335.216 157.836 335.216ZM164.239 335H165.831V328.442C165.831 327.038 166.938 326.013 168.449 326.013C168.874 326.013 169.313 326.094 169.421 326.121V324.501C169.238 324.488 168.82 324.474 168.584 324.474C167.342 324.474 166.263 325.176 165.885 326.202H165.777V324.636H164.239V335ZM175.338 335.216C177.443 335.216 178.981 334.163 179.467 332.598L177.929 332.166C177.524 333.246 176.586 333.786 175.338 333.786C173.469 333.786 172.18 332.578 172.106 330.358H179.629V329.683C179.629 325.824 177.335 324.501 175.176 324.501C172.369 324.501 170.507 326.714 170.507 329.899C170.507 333.084 172.342 335.216 175.338 335.216ZM172.106 328.982C172.214 327.369 173.354 325.932 175.176 325.932C176.903 325.932 178.01 327.227 178.01 328.982H172.106ZM185.101 335.243C186.909 335.243 187.854 334.271 188.178 333.597H188.259V335H189.851V328.172C189.851 324.879 187.341 324.501 186.019 324.501C184.453 324.501 182.672 325.041 181.862 326.93L183.374 327.47C183.725 326.714 184.554 325.905 186.073 325.905C187.537 325.905 188.259 326.681 188.259 328.01V328.064C188.259 328.833 187.476 328.766 185.587 329.009C183.664 329.258 181.565 329.683 181.565 332.058C181.565 334.082 183.131 335.243 185.101 335.243ZM185.344 333.812C184.075 333.812 183.158 333.246 183.158 332.139C183.158 330.925 184.264 330.547 185.506 330.385C186.181 330.304 187.989 330.115 188.259 329.791V331.249C188.259 332.544 187.233 333.812 185.344 333.812ZM197.264 324.636H195.051V322.153H193.459V324.636H191.894V325.986H193.459V332.463C193.459 334.271 194.916 335.135 196.266 335.135C196.86 335.135 197.237 335.027 197.453 334.946L197.129 333.516C196.995 333.543 196.779 333.597 196.428 333.597C195.726 333.597 195.051 333.381 195.051 332.031V325.986H197.264V324.636ZM203.893 335.216C205.999 335.216 207.537 334.163 208.023 332.598L206.484 332.166C206.08 333.246 205.142 333.786 203.893 333.786C202.025 333.786 200.736 332.578 200.662 330.358H208.185V329.683C208.185 325.824 205.891 324.501 203.732 324.501C200.925 324.501 199.063 326.714 199.063 329.899C199.063 333.084 200.898 335.216 203.893 335.216ZM200.662 328.982C200.77 327.369 201.91 325.932 203.732 325.932C205.459 325.932 206.565 327.227 206.565 328.982H200.662ZM214.52 335.216C216.517 335.216 217.192 333.974 217.543 333.408H217.732V335H219.27V321.182H217.678V326.283H217.543C217.192 325.743 216.571 324.501 214.547 324.501C211.929 324.501 210.121 326.58 210.121 329.845C210.121 333.138 211.929 335.216 214.52 335.216ZM214.736 333.786C212.739 333.786 211.713 332.031 211.713 329.818C211.713 327.632 212.712 325.932 214.736 325.932C216.679 325.932 217.705 327.497 217.705 329.818C217.705 332.166 216.652 333.786 214.736 333.786ZM230.801 335.243C232.609 335.243 233.554 334.271 233.878 333.597H233.959V335H235.551V328.172C235.551 324.879 233.041 324.501 231.719 324.501C230.153 324.501 228.372 325.041 227.563 326.93L229.074 327.47C229.425 326.714 230.255 325.905 231.773 325.905C233.237 325.905 233.959 326.681 233.959 328.01V328.064C233.959 328.833 233.176 328.766 231.287 329.009C229.364 329.258 227.266 329.683 227.266 332.058C227.266 334.082 228.831 335.243 230.801 335.243ZM231.044 333.812C229.776 333.812 228.858 333.246 228.858 332.139C228.858 330.925 229.965 330.547 231.206 330.385C231.881 330.304 233.689 330.115 233.959 329.791V331.249C233.959 332.544 232.933 333.812 231.044 333.812ZM245.394 328.766C245.394 326.957 246.514 325.932 248.038 325.932C249.516 325.932 250.413 326.897 250.413 328.523V335H252.006V328.415C252.006 325.77 250.596 324.501 248.497 324.501C246.932 324.501 245.96 325.203 245.475 326.256H245.34V324.636H243.801V335H245.394V328.766ZM259.126 335.216C261.933 335.216 263.822 333.084 263.822 329.872C263.822 326.634 261.933 324.501 259.126 324.501C256.319 324.501 254.43 326.634 254.43 329.872C254.43 333.084 256.319 335.216 259.126 335.216ZM259.126 333.786C256.994 333.786 256.022 331.95 256.022 329.872C256.022 327.794 256.994 325.932 259.126 325.932C261.258 325.932 262.229 327.794 262.229 329.872C262.229 331.95 261.258 333.786 259.126 333.786ZM270.76 324.636H268.546V322.153H266.954V324.636H265.389V325.986H266.954V332.463C266.954 334.271 268.412 335.135 269.761 335.135C270.355 335.135 270.733 335.027 270.948 334.946L270.625 333.516C270.49 333.543 270.274 333.597 269.923 333.597C269.221 333.597 268.546 333.381 268.546 332.031V325.986H270.76V324.636ZM277.389 335.216C279.494 335.216 281.032 334.163 281.518 332.598L279.98 332.166C279.575 333.246 278.637 333.786 277.389 333.786C275.52 333.786 274.231 332.578 274.157 330.358H281.68V329.683C281.68 325.824 279.386 324.501 277.227 324.501C274.42 324.501 272.558 326.714 272.558 329.899C272.558 333.084 274.393 335.216 277.389 335.216ZM274.157 328.982C274.265 327.369 275.405 325.932 277.227 325.932C278.954 325.932 280.06 327.227 280.06 328.982H274.157ZM290.471 338.886C291.909 338.886 292.921 338.124 293.521 336.511L297.934 324.663L296.193 324.636L293.332 332.895H293.224L290.363 324.636H288.636L292.469 335.054L292.172 335.864C291.591 337.442 290.876 337.591 289.716 337.294L289.311 338.697C289.473 338.778 289.932 338.886 290.471 338.886ZM304.015 335.216C306.12 335.216 307.658 334.163 308.144 332.598L306.606 332.166C306.201 333.246 305.263 333.786 304.015 333.786C302.146 333.786 300.857 332.578 300.783 330.358H308.306V329.683C308.306 325.824 306.012 324.501 303.853 324.501C301.046 324.501 299.184 326.714 299.184 329.899C299.184 333.084 301.019 335.216 304.015 335.216ZM300.783 328.982C300.891 327.369 302.031 325.932 303.853 325.932C305.58 325.932 306.686 327.227 306.686 328.982H300.783ZM315.235 324.636H313.022V322.153H311.43V324.636H309.864V325.986H311.43V332.463C311.43 334.271 312.887 335.135 314.237 335.135C314.83 335.135 315.208 335.027 315.424 334.946L315.1 333.516C314.965 333.543 314.749 333.597 314.398 333.597C313.697 333.597 313.022 333.381 313.022 332.031V325.986H315.235V324.636Z" fill="#FFFFFE"/>
</svg>
